<svg xmlns="http://www.w3.org/2000/svg" xmlns:xlink="http://www.w3.org/1999/xlink" preserveAspectRatio="xMidYMid meet" version="1.0" viewBox="-0.1 -1.7 78.6 79.2" zoomAndPan="magnify" style="fill: rgb(0, 0, 0);" original_string_length="7880" width="218.9604166666667px" height="218.9604166666667px"><g data-name="39" id="__id0_sl1auoj05u"><path d="M64.058,40.8a4.373,4.373,0,0,1-8.381.341,1.4,1.4,0,0,1,2.642-.93c.023.065.049.128.074.192.071.11.14.221.218.328v0c.029.029.057.058.087.086a3.313,3.313,0,0,1,.283.23c.047.027.094.054.142.078.068.035.136.064.2.094a3.106,3.106,0,0,0,.327.078l.015,0a.349.349,0,0,0,.046.006.549.549,0,0,1,.138.017c-.026-.008-.038-.009-.059-.016.113-.005.225-.022.336-.031.063-.018.124-.038.185-.06s.106-.041.158-.063c.092-.075.217-.13.312-.2l.044-.034c.031-.028.064-.055.089-.082.086-.09.159-.186.236-.283.035-.063.071-.126.1-.191.024-.049.044-.1.067-.15a.232.232,0,0,1,.035-.066,1.389,1.389,0,0,1,2.7.653Zm14.15,11.9a4.06,4.06,0,0,1-2.038,2.436,16.33,16.33,0,0,1-2.932,1.044c-1.074.328-2.138.656-3.211.974a19.21,19.21,0,0,1-10.141,9.574,22.83,22.83,0,0,1-.24,4.844c-.33,2.083-.753,4.553-2.354,5.189a1.606,1.606,0,0,1-.152.053,7.264,7.264,0,0,1-2.97.561,7.806,7.806,0,0,1-4.344-.845,4.138,4.138,0,0,1-.974-.816V75.7a6.136,6.136,0,0,1-1.273-3.558c-.02-.259-.049-.527-.059-.786a76.177,76.177,0,0,1-13.471-.378l-.159,1.76a6.351,6.351,0,0,1-.666,2.843c-.944,1.511-2.714,1.75-4.354,1.79a7.89,7.89,0,0,1-4.345-.835c-1.58-.975-2.087-2.635-2.246-4.384-.139-1.482-.229-2.973-.328-4.454a24.191,24.191,0,0,1-13.3-19.117,12.564,12.564,0,0,1-2.664.129A7.249,7.249,0,0,1,1.77,51.3a1.441,1.441,0,0,1-1.72-.974,1.4,1.4,0,0,1,.974-1.71,6.214,6.214,0,0,0,1.034-.3.911.911,0,0,0,.139-.06c.07-.03.13-.07.2-.1a4.7,4.7,0,0,0,.487-.3c.01,0,.03-.02.06-.05a5.574,5.574,0,0,1-.855-.656C.5,45.62.11,42.738,1.9,41.187A3.636,3.636,0,0,1,5,40.342a3.328,3.328,0,0,1,2.366,2.207,5.537,5.537,0,0,1,.059,3.409l.259-.03a1.852,1.852,0,0,0,.2-.019c.059-.01.179-.03.189-.03.159-.03.318-.05.467-.08a22.287,22.287,0,0,1,1.044-6.332,24.508,24.508,0,0,1,13.268-14.82A17.334,17.334,0,0,1,21.2,17.258v-.149a2.428,2.428,0,0,1,.01-.269,17.3,17.3,0,0,1,.935-5.259h.029a16.181,16.181,0,0,1,.895-2.087c.159-.308.328-.617.507-.9H23.5a18.96,18.96,0,0,1,1.343-1.968c.228-.3.467-.587.725-.865h.09c.119-.139.248-.268.378-.408.089-.089.169-.179.248-.268a18.871,18.871,0,0,1,2.336-1.949A17.405,17.405,0,0,1,50.88,5.09a17.326,17.326,0,0,1,4.593,8.032,17.811,17.811,0,0,1,.516,4.255c0,.358-.009.716-.029,1.064-.02.328-.05.656-.09.974-.06.5-.147.992-.25,1.48,2.445-1.626,5.23-2.548,8.173-1.181,4.414,2.057,3.8,7.7,2.933,11.77a13,13,0,0,1,5.557,8.848c1.73.178,3.47.656,4.494,2.2a7.1,7.1,0,0,1,.954,3.181c.159,1.193.3,2.4.447,3.589A8.5,8.5,0,0,1,78.208,52.7ZM4.872,44.288A2.869,2.869,0,0,0,4.862,44a.414.414,0,0,0-.01-.1.325.325,0,0,0-.02-.119c-.02-.089-.05-.179-.07-.278a.037.037,0,0,1-.01-.03v-.01c-.03-.07-.069-.139-.1-.2a1.046,1.046,0,0,0-.09-.109l-.049-.05a.077.077,0,0,0-.03-.02l-.02-.02a.908.908,0,0,1-.109-.019.57.57,0,0,0-.13-.01c-.01.01,0,.01-.019.01-.06.019-.13.039-.2.059H4c-.05.03-.11.06-.159.09-.02.01-.04.029-.07.049-.04.04-.089.08-.089.09a.01.01,0,0,0-.01.01c-.04.059-.07.119-.1.169l-.01.01c-.01.01-.01.02-.01.039-.019.07-.039.15-.059.219,0,.119.01.249.01.368a2.463,2.463,0,0,1,.079.318.408.408,0,0,1,.02.07c.01.01.01.03.03.05.04.069.069.149.109.218.03.04.06.08.08.11a1.314,1.314,0,0,0,.109.138c.06.06.12.12.179.17a.955.955,0,0,0,.09.079,1.148,1.148,0,0,1,.169.12c.069.039.139.089.208.129a.052.052,0,0,1,.04.02c.06-.179.129-.348.169-.518.02-.109.04-.218.06-.317C4.852,44.587,4.872,44.437,4.872,44.288ZM23.849,17.367a14.51,14.51,0,0,0,.209,2.466,13.724,13.724,0,0,0,.776,2.833,14.472,14.472,0,0,0,3.33,5.11c.089.089.159.159.239.228a12.918,12.918,0,0,0,1.63,1.352,34.543,34.543,0,0,1,7.555-1.511,1.347,1.347,0,0,1-.358-.914V25.42a4.75,4.75,0,0,1-2.992-1.382,4.69,4.69,0,0,1-1.4-3.37.311.311,0,0,1,.02-.139,1.286,1.286,0,0,1,.358-.806,1.357,1.357,0,0,1,2.326.945,1.268,1.268,0,0,0,.01.2,2.039,2.039,0,0,0,.6,1.242,1.974,1.974,0,0,0,1.451.617h1.969a2,2,0,0,0,1.381-.547.462.462,0,0,0,.07-.07,2.028,2.028,0,0,0,.557-1.044,1.333,1.333,0,0,0,.029-.288.368.368,0,0,0,.01-.109,1.99,1.99,0,0,0-.576-1.422c0-.01-.01-.02-.02-.029a2.039,2.039,0,0,0-1.113-.577,1.939,1.939,0,0,0-.338-.03H37.6a5.213,5.213,0,0,1-.566-.03,4.753,4.753,0,0,1-2.794-1.372,4.688,4.688,0,0,1-1.4-3.37v-.03a.407.407,0,0,1,.01-.109,2.768,2.768,0,0,1,.02-.288.41.41,0,0,1,.01-.11,4.528,4.528,0,0,1,.8-2.157,5.186,5.186,0,0,1,.567-.666A4.71,4.71,0,0,1,37.22,9.086h.01V7.565a.412.412,0,0,1,.02-.159c0-.01.01-.02.01-.04s.01-.02.01-.03a1.334,1.334,0,0,1,1.312-1.113,1.351,1.351,0,0,1,1.352,1.342V9.086a4.815,4.815,0,0,1,4.4,4.752.277.277,0,0,1-.01.09,1.474,1.474,0,0,1-.019.2,1.412,1.412,0,0,1-.408.706,1.353,1.353,0,0,1-.925.368,1.371,1.371,0,0,1-1.362-1.362,2.037,2.037,0,0,0-2.047-2.048H37.6a2.034,2.034,0,0,0-1.451.6,1.619,1.619,0,0,0-.348.487,1.676,1.676,0,0,0-.249.845.479.479,0,0,0-.01.119,1.463,1.463,0,0,0,.01.209,2.042,2.042,0,0,0,.6,1.243c.01.01.01.019.02.019a2.005,2.005,0,0,0,1.431.6h1.969a4.755,4.755,0,0,1,4.722,4.3l.029.208c0,.09.02.169.02.249,0,.139-.01.268-.02.407-.009.07-.009.139-.019.219a5.132,5.132,0,0,1-.169.766,4.831,4.831,0,0,1-1.2,1.978,4.723,4.723,0,0,1-1.79,1.133,4.847,4.847,0,0,1-1.2.249v1.511a1.351,1.351,0,0,1-.258.785,36.39,36.39,0,0,1,8.549.746,9.821,9.821,0,0,0,.746-.686,14.425,14.425,0,0,0,4.056-7.635c.05-.229.09-.467.119-.706.06-.437.11-.885.13-1.332.019-.279.029-.567.029-.855a14.729,14.729,0,0,0-14.723-14.7,14.5,14.5,0,0,0-8.43,2.644,15.617,15.617,0,0,0-1.978,1.65c-.07.08-.139.15-.209.229a14.091,14.091,0,0,0-1.024,1.173,14.789,14.789,0,0,0-1.491,2.336,14.441,14.441,0,0,0-1.541,5.538c-.03.318-.05.656-.05.984A2.4,2.4,0,0,0,23.849,17.367Zm51.586,32.21c-.13-1.024-.259-2.058-.388-3.092a7.622,7.622,0,0,0-.428-2.157c-.546-1.193-2.157-1.223-3.29-1.292a1.513,1.513,0,0,1-.69-.215A2.63,2.63,0,0,1,69.6,41c-.525-2.49-.792-5.208-5.149-7.665a1.427,1.427,0,0,1-.637-1.571c.617-2.674,2.058-8.191-1.391-9.623-3.182-1.312-6.194,1.581-8.3,3.569a1.437,1.437,0,0,1-.488.31,17.843,17.843,0,0,1-2.743,3.547c-.289.289-.577.557-.875.816a1.345,1.345,0,0,1-1.253.994,1.154,1.154,0,0,1-.407-.03,31.379,31.379,0,0,0-3.579-.627A33.8,33.8,0,0,0,29.983,32.3c-.04.01-.069.02-.1.03A1.229,1.229,0,0,1,28.323,31.3a17.257,17.257,0,0,1-1.75-1.461c-.089-.08-.169-.159-.278-.269a17.483,17.483,0,0,1-2.08-2.511,21.04,21.04,0,0,0-8.3,6.358A20.631,20.631,0,0,0,11.91,51.257,21.632,21.632,0,0,0,23.432,65.334a1.44,1.44,0,0,1,1.243,1.382q.1,1.506.208,3.012c.07.924.08,1.869.209,2.783.01.01.08.368.09.418a3.694,3.694,0,0,0,.169.547,3.577,3.577,0,0,1,.188.318l.01.01a2.461,2.461,0,0,1,.2.189c.02,0,.239.179.289.208.069.03.129.07.2.1a.2.2,0,0,0,.06.02c.169.05.328.109.5.149a2.805,2.805,0,0,1,.358.07,12.7,12.7,0,0,0,2.127.039c.189-.01.368-.02.557-.039a.22.22,0,0,0,.08-.01c.079-.01.159-.03.238-.04.05-.01.338-.11.368-.11a2.144,2.144,0,0,0,.219-.119c.04-.04.059-.07.079-.079.03-.05.06-.11.09-.16,0-.029.089-.347.1-.4a.892.892,0,0,0,.02-.11v.04a.315.315,0,0,0,.01-.069,1.77,1.77,0,0,1,.02-.229c.03-.229.04-.467.069-.706.08-.984.169-1.978.259-2.972a1.986,1.986,0,0,1,.04-.239,1.376,1.376,0,0,1,1.382-1.272A76.443,76.443,0,0,0,48.9,68.5c.04,0,.08.01.12.01a1.738,1.738,0,0,1,.943.427c.938.878.173,2.682.878,4.4.331.8.714.943.8.97.123.039.495.12.669.153.1.019.2.034.3.051l.105.012a9.477,9.477,0,0,0,1.272.041c.229-.007.456-.03.685-.049h.021a2.244,2.244,0,0,0,.287-.049c.655-.192.982-.287,1.173-.513a4.788,4.788,0,0,0,.28-.89q.124-.45.219-.907c.027-.13.052-.261.075-.392.007-.036.042-.257.056-.335,0-.037.036-.309.041-.351.013-.133.024-.266.034-.4.03-.428.034-.87.035-.932.008-.889-.074-2.2-.077-2.264a3.578,3.578,0,0,1,.526-2.131,3.394,3.394,0,0,1,.964-.955c.02-.009.03-.019.05-.019a16.343,16.343,0,0,0,5.606-3.45,15.735,15.735,0,0,0,2.178-2.5,16.67,16.67,0,0,0,1.62-2.883,1.483,1.483,0,0,1,1.352-1.014c1.74-.517,3.529-.955,5.219-1.6a1.8,1.8,0,0,0,1.193-.964A5.871,5.871,0,0,0,75.435,49.577Z" style="fill: inherit;"/></g></svg>